<?xml version="1.0" standalone="no"?>
<!DOCTYPE svg PUBLIC "-//W3C//DTD SVG 20010904//EN"
 "http://www.w3.org/TR/2001/REC-SVG-20010904/DTD/svg10.dtd">
<svg version="1.0" xmlns="http://www.w3.org/2000/svg"
 width="16.000000pt" height="16.000000pt" viewBox="0 0 16.000000 16.000000"
 preserveAspectRatio="xMidYMid meet">
<metadata>
Created by potrace 1.11, written by Peter Selinger 2001-2013
</metadata>
<g transform="translate(0.000000,16.000000) scale(0.005333,-0.005333)"
fill="#000000" stroke="none">
<path d="M1099 2434 c-85 -16 -146 -37 -239 -81 -106 -51 -249 -195 -307 -308
-74 -145 -88 -223 -92 -510 -2 -151 -5 -164 -42 -177 -8 -3 -31 -131 -44 -238
-3 -25 -8 -61 -10 -80 -3 -19 -9 -70 -15 -114 -8 -66 -15 -84 -41 -114 -44
-50 -80 -132 -81 -185 -1 -79 27 -149 132 -327 52 -88 70 -127 74 -167 3 -28
8 -57 10 -65 2 -7 7 -25 10 -40 l6 -28 1066 0 c586 0 1063 4 1060 8 -10 17 33
193 57 235 13 23 46 80 74 127 81 139 96 184 91 260 -6 74 -33 135 -80 181
-18 16 -33 36 -34 43 -1 7 -5 39 -8 72 -4 32 -9 70 -11 84 -2 14 -6 45 -10 70
-3 25 -7 61 -10 80 -3 19 -7 55 -10 80 -10 74 -23 114 -45 132 -16 15 -20 30
-21 90 -4 359 -20 454 -101 599 -106 188 -340 350 -543 375 -101 12 -767 11
-836 -2z"/>
</g>
</svg>
